<mxfile host="app.diagrams.net" modified="2020-04-08T02:02:15.842Z" agent="5.0 (Macintosh; Intel Mac OS X 10_14_6) AppleWebKit/537.36 (KHTML, like Gecko) Chrome/80.0.3987.149 Safari/537.36" etag="pbsU2EdsyyKEciMQI9fA" version="12.9.6" type="github" pages="2">
  <diagram id="C5RBs43oDa-KdzZeNtuy" name="Page-1">
    <mxGraphModel dx="1084" dy="395" grid="1" gridSize="10" guides="1" tooltips="1" connect="1" arrows="1" fold="1" page="1" pageScale="1" pageWidth="827" pageHeight="1169" math="0" shadow="0">
      <root>
        <mxCell id="WIyWlLk6GJQsqaUBKTNV-0" />
        <mxCell id="WIyWlLk6GJQsqaUBKTNV-1" parent="WIyWlLk6GJQsqaUBKTNV-0" />
        <mxCell id="WkMmU_DVGKZ8sKIogaW4-0" value="Maven server&lt;br&gt;&lt;p class=&quot;p1&quot; style=&quot;margin: 0px ; font-stretch: normal ; line-height: normal ; font-family: &amp;#34;helvetica neue&amp;#34; ; color: rgb(15 , 15 , 15) ; background-color: rgb(255 , 255 , 255)&quot;&gt;&lt;span class=&quot;s1&quot;&gt;9.30.146.75&lt;/span&gt;&lt;/p&gt;" style="shape=cylinder;whiteSpace=wrap;html=1;boundedLbl=1;backgroundOutline=1;" parent="WIyWlLk6GJQsqaUBKTNV-1" vertex="1">
          <mxGeometry x="150" y="260" width="60" height="80" as="geometry" />
        </mxCell>
        <mxCell id="WkMmU_DVGKZ8sKIogaW4-1" value="git master" style="shape=cylinder;whiteSpace=wrap;html=1;boundedLbl=1;backgroundOutline=1;" parent="WIyWlLk6GJQsqaUBKTNV-1" vertex="1">
          <mxGeometry x="710" y="330" width="60" height="80" as="geometry" />
        </mxCell>
        <mxCell id="WkMmU_DVGKZ8sKIogaW4-2" value="PR" style="rounded=1;whiteSpace=wrap;html=1;" parent="WIyWlLk6GJQsqaUBKTNV-1" vertex="1">
          <mxGeometry x="50" y="360" width="90" height="40" as="geometry" />
        </mxCell>
        <mxCell id="WkMmU_DVGKZ8sKIogaW4-3" value="JenkinsÂ 9.30.119.243" style="swimlane;childLayout=stackLayout;horizontal=1;fillColor=none;horizontalStack=1;resizeParent=1;resizeParentMax=0;resizeLast=0;collapsible=0;strokeColor=none;stackBorder=10;stackSpacing=-12;resizable=1;align=center;points=[];fontColor=#000000;" parent="WIyWlLk6GJQsqaUBKTNV-1" vertex="1">
          <mxGeometry x="252" y="150" width="296" height="100" as="geometry" />
        </mxCell>
        <mxCell id="WkMmU_DVGKZ8sKIogaW4-4" value="Step 1" style="shape=step;perimeter=stepPerimeter;fixedSize=1;points=[];" parent="WkMmU_DVGKZ8sKIogaW4-3" vertex="1">
          <mxGeometry x="10" y="33" width="100" height="57" as="geometry" />
        </mxCell>
        <mxCell id="WkMmU_DVGKZ8sKIogaW4-5" value="Step 2" style="shape=step;perimeter=stepPerimeter;fixedSize=1;points=[];" parent="WkMmU_DVGKZ8sKIogaW4-3" vertex="1">
          <mxGeometry x="98" y="33" width="100" height="57" as="geometry" />
        </mxCell>
        <mxCell id="WkMmU_DVGKZ8sKIogaW4-6" value="Step 3" style="shape=step;perimeter=stepPerimeter;fixedSize=1;points=[];" parent="WkMmU_DVGKZ8sKIogaW4-3" vertex="1">
          <mxGeometry x="186" y="33" width="100" height="57" as="geometry" />
        </mxCell>
        <mxCell id="WkMmU_DVGKZ8sKIogaW4-7" value="" style="endArrow=classic;html=1;exitX=1;exitY=0.5;exitDx=0;exitDy=0;" parent="WIyWlLk6GJQsqaUBKTNV-1" source="WkMmU_DVGKZ8sKIogaW4-2" edge="1">
          <mxGeometry width="50" height="50" relative="1" as="geometry">
            <mxPoint x="390" y="350" as="sourcePoint" />
            <mxPoint x="230" y="380" as="targetPoint" />
            <Array as="points">
              <mxPoint x="140" y="380" />
            </Array>
          </mxGeometry>
        </mxCell>
        <mxCell id="WkMmU_DVGKZ8sKIogaW4-8" value="pull PR code&lt;br&gt;runBuildJob" style="text;html=1;align=center;verticalAlign=middle;resizable=0;points=[];autosize=1;" parent="WIyWlLk6GJQsqaUBKTNV-1" vertex="1">
          <mxGeometry x="140" y="350" width="80" height="30" as="geometry" />
        </mxCell>
        <mxCell id="WkMmU_DVGKZ8sKIogaW4-12" value="Build&lt;br&gt;Server" style="shape=cylinder;whiteSpace=wrap;html=1;boundedLbl=1;backgroundOutline=1;" parent="WIyWlLk6GJQsqaUBKTNV-1" vertex="1">
          <mxGeometry x="230" y="330" width="60" height="80" as="geometry" />
        </mxCell>
        <mxCell id="WkMmU_DVGKZ8sKIogaW4-13" value="runDeployJob" style="text;html=1;align=center;verticalAlign=middle;resizable=0;points=[];autosize=1;" parent="WIyWlLk6GJQsqaUBKTNV-1" vertex="1">
          <mxGeometry x="290" y="355" width="90" height="20" as="geometry" />
        </mxCell>
        <mxCell id="WkMmU_DVGKZ8sKIogaW4-14" value="" style="endArrow=classic;html=1;exitX=1;exitY=0.5;exitDx=0;exitDy=0;" parent="WIyWlLk6GJQsqaUBKTNV-1" edge="1">
          <mxGeometry width="50" height="50" relative="1" as="geometry">
            <mxPoint x="350" y="380" as="sourcePoint" />
            <mxPoint x="380" y="380" as="targetPoint" />
            <Array as="points">
              <mxPoint x="350" y="380" />
              <mxPoint x="290" y="380" />
            </Array>
          </mxGeometry>
        </mxCell>
        <mxCell id="WkMmU_DVGKZ8sKIogaW4-15" value="PlayGround" style="shape=cylinder;whiteSpace=wrap;html=1;boundedLbl=1;backgroundOutline=1;" parent="WIyWlLk6GJQsqaUBKTNV-1" vertex="1">
          <mxGeometry x="384" y="330" width="60" height="80" as="geometry" />
        </mxCell>
        <mxCell id="WkMmU_DVGKZ8sKIogaW4-16" value="Pass smoke test?" style="rhombus;whiteSpace=wrap;html=1;" parent="WIyWlLk6GJQsqaUBKTNV-1" vertex="1">
          <mxGeometry x="530" y="340" width="80" height="80" as="geometry" />
        </mxCell>
        <mxCell id="WkMmU_DVGKZ8sKIogaW4-17" value="" style="endArrow=classic;html=1;exitX=1;exitY=0.5;exitDx=0;exitDy=0;" parent="WIyWlLk6GJQsqaUBKTNV-1" edge="1">
          <mxGeometry width="50" height="50" relative="1" as="geometry">
            <mxPoint x="504" y="379" as="sourcePoint" />
            <mxPoint x="534" y="379" as="targetPoint" />
            <Array as="points">
              <mxPoint x="504" y="379" />
              <mxPoint x="444" y="379" />
            </Array>
          </mxGeometry>
        </mxCell>
        <mxCell id="WkMmU_DVGKZ8sKIogaW4-20" value="runSmoketest" style="text;html=1;" parent="WIyWlLk6GJQsqaUBKTNV-1" vertex="1">
          <mxGeometry x="450" y="355" width="80" height="30" as="geometry" />
        </mxCell>
        <mxCell id="WkMmU_DVGKZ8sKIogaW4-21" value="" style="endArrow=classic;html=1;entryX=-0.083;entryY=0.6;entryDx=0;entryDy=0;exitX=1;exitY=0.5;exitDx=0;exitDy=0;entryPerimeter=0;" parent="WIyWlLk6GJQsqaUBKTNV-1" source="WkMmU_DVGKZ8sKIogaW4-16" target="WkMmU_DVGKZ8sKIogaW4-1" edge="1">
          <mxGeometry width="50" height="50" relative="1" as="geometry">
            <mxPoint x="610" y="385" as="sourcePoint" />
            <mxPoint x="660" y="335" as="targetPoint" />
          </mxGeometry>
        </mxCell>
        <mxCell id="WkMmU_DVGKZ8sKIogaW4-22" value="Yes&lt;br&gt;Mark pass" style="text;html=1;align=center;verticalAlign=middle;resizable=0;points=[];autosize=1;" parent="WIyWlLk6GJQsqaUBKTNV-1" vertex="1">
          <mxGeometry x="636" y="359" width="70" height="30" as="geometry" />
        </mxCell>
        <mxCell id="WkMmU_DVGKZ8sKIogaW4-23" value="" style="endArrow=classic;html=1;exitX=0.5;exitY=1;exitDx=0;exitDy=0;entryX=0.5;entryY=1;entryDx=0;entryDy=0;" parent="WIyWlLk6GJQsqaUBKTNV-1" source="WkMmU_DVGKZ8sKIogaW4-16" target="WkMmU_DVGKZ8sKIogaW4-2" edge="1">
          <mxGeometry width="50" height="50" relative="1" as="geometry">
            <mxPoint x="530" y="500" as="sourcePoint" />
            <mxPoint x="580" y="450" as="targetPoint" />
            <Array as="points">
              <mxPoint x="570" y="480" />
              <mxPoint x="95" y="480" />
            </Array>
          </mxGeometry>
        </mxCell>
        <mxCell id="WkMmU_DVGKZ8sKIogaW4-24" value="No&lt;br&gt;reject&lt;br&gt;openissue" style="text;html=1;align=center;verticalAlign=middle;resizable=0;points=[];autosize=1;" parent="WIyWlLk6GJQsqaUBKTNV-1" vertex="1">
          <mxGeometry x="261" y="445" width="70" height="50" as="geometry" />
        </mxCell>
      </root>
    </mxGraphModel>
  </diagram>
  <diagram id="XKywMXYeyzhVhm-Jrdah" name="Page-2">
    <mxGraphModel dx="1084" dy="395" grid="1" gridSize="10" guides="1" tooltips="1" connect="1" arrows="1" fold="1" page="1" pageScale="1" pageWidth="850" pageHeight="1100" math="0" shadow="0">
      <root>
        <mxCell id="5rugF0ERXmjo2UGkI-uo-0" />
        <mxCell id="5rugF0ERXmjo2UGkI-uo-1" parent="5rugF0ERXmjo2UGkI-uo-0" />
        <mxCell id="RCvWjOJknEX4SDyLQUNa-0" value="Maven server&lt;br&gt;&lt;p class=&quot;p1&quot; style=&quot;margin: 0px ; font-stretch: normal ; line-height: normal ; font-family: &amp;#34;helvetica neue&amp;#34; ; color: rgb(15 , 15 , 15) ; background-color: rgb(255 , 255 , 255)&quot;&gt;&lt;span class=&quot;s1&quot;&gt;9.30.146.75&lt;/span&gt;&lt;/p&gt;" style="shape=cylinder;whiteSpace=wrap;html=1;boundedLbl=1;backgroundOutline=1;" parent="5rugF0ERXmjo2UGkI-uo-1" vertex="1">
          <mxGeometry x="165" y="190" width="60" height="80" as="geometry" />
        </mxCell>
        <mxCell id="RCvWjOJknEX4SDyLQUNa-1" value="git feature1" style="shape=cylinder;whiteSpace=wrap;html=1;boundedLbl=1;backgroundOutline=1;" parent="5rugF0ERXmjo2UGkI-uo-1" vertex="1">
          <mxGeometry x="725" y="260" width="60" height="80" as="geometry" />
        </mxCell>
        <mxCell id="RCvWjOJknEX4SDyLQUNa-2" value="PR" style="rounded=1;whiteSpace=wrap;html=1;" parent="5rugF0ERXmjo2UGkI-uo-1" vertex="1">
          <mxGeometry x="65" y="290" width="90" height="40" as="geometry" />
        </mxCell>
        <mxCell id="RCvWjOJknEX4SDyLQUNa-3" value="" style="endArrow=classic;html=1;exitX=1;exitY=0.5;exitDx=0;exitDy=0;" parent="5rugF0ERXmjo2UGkI-uo-1" source="RCvWjOJknEX4SDyLQUNa-2" edge="1">
          <mxGeometry width="50" height="50" relative="1" as="geometry">
            <mxPoint x="405" y="280" as="sourcePoint" />
            <mxPoint x="245" y="310" as="targetPoint" />
            <Array as="points">
              <mxPoint x="155" y="310" />
            </Array>
          </mxGeometry>
        </mxCell>
        <mxCell id="RCvWjOJknEX4SDyLQUNa-4" value="pull PR code&lt;br&gt;runBuildJob" style="text;html=1;align=center;verticalAlign=middle;resizable=0;points=[];autosize=1;" parent="5rugF0ERXmjo2UGkI-uo-1" vertex="1">
          <mxGeometry x="155" y="280" width="80" height="30" as="geometry" />
        </mxCell>
        <mxCell id="RCvWjOJknEX4SDyLQUNa-5" value="Build&lt;br&gt;Server" style="shape=cylinder;whiteSpace=wrap;html=1;boundedLbl=1;backgroundOutline=1;" parent="5rugF0ERXmjo2UGkI-uo-1" vertex="1">
          <mxGeometry x="245" y="260" width="60" height="80" as="geometry" />
        </mxCell>
        <mxCell id="RCvWjOJknEX4SDyLQUNa-6" value="runDeployJob" style="text;html=1;align=center;verticalAlign=middle;resizable=0;points=[];autosize=1;" parent="5rugF0ERXmjo2UGkI-uo-1" vertex="1">
          <mxGeometry x="305" y="285" width="90" height="20" as="geometry" />
        </mxCell>
        <mxCell id="RCvWjOJknEX4SDyLQUNa-7" value="" style="endArrow=classic;html=1;exitX=1;exitY=0.5;exitDx=0;exitDy=0;" parent="5rugF0ERXmjo2UGkI-uo-1" edge="1">
          <mxGeometry width="50" height="50" relative="1" as="geometry">
            <mxPoint x="365" y="310" as="sourcePoint" />
            <mxPoint x="395" y="310" as="targetPoint" />
            <Array as="points">
              <mxPoint x="365" y="310" />
              <mxPoint x="305" y="310" />
            </Array>
          </mxGeometry>
        </mxCell>
        <mxCell id="RCvWjOJknEX4SDyLQUNa-8" value="PlayGround" style="shape=cylinder;whiteSpace=wrap;html=1;boundedLbl=1;backgroundOutline=1;" parent="5rugF0ERXmjo2UGkI-uo-1" vertex="1">
          <mxGeometry x="399" y="260" width="60" height="80" as="geometry" />
        </mxCell>
        <mxCell id="RCvWjOJknEX4SDyLQUNa-9" value="Pass smoke test?" style="rhombus;whiteSpace=wrap;html=1;" parent="5rugF0ERXmjo2UGkI-uo-1" vertex="1">
          <mxGeometry x="545" y="270" width="80" height="80" as="geometry" />
        </mxCell>
        <mxCell id="RCvWjOJknEX4SDyLQUNa-10" value="" style="endArrow=classic;html=1;exitX=1;exitY=0.5;exitDx=0;exitDy=0;" parent="5rugF0ERXmjo2UGkI-uo-1" edge="1">
          <mxGeometry width="50" height="50" relative="1" as="geometry">
            <mxPoint x="519" y="309" as="sourcePoint" />
            <mxPoint x="549" y="309" as="targetPoint" />
            <Array as="points">
              <mxPoint x="519" y="309" />
              <mxPoint x="459" y="309" />
            </Array>
          </mxGeometry>
        </mxCell>
        <mxCell id="RCvWjOJknEX4SDyLQUNa-11" value="runSmoketest" style="text;html=1;" parent="5rugF0ERXmjo2UGkI-uo-1" vertex="1">
          <mxGeometry x="465" y="285" width="80" height="30" as="geometry" />
        </mxCell>
        <mxCell id="RCvWjOJknEX4SDyLQUNa-12" value="" style="endArrow=classic;html=1;entryX=-0.083;entryY=0.6;entryDx=0;entryDy=0;exitX=1;exitY=0.5;exitDx=0;exitDy=0;entryPerimeter=0;" parent="5rugF0ERXmjo2UGkI-uo-1" source="RCvWjOJknEX4SDyLQUNa-9" target="RCvWjOJknEX4SDyLQUNa-1" edge="1">
          <mxGeometry width="50" height="50" relative="1" as="geometry">
            <mxPoint x="625" y="315" as="sourcePoint" />
            <mxPoint x="675" y="265" as="targetPoint" />
          </mxGeometry>
        </mxCell>
        <mxCell id="RCvWjOJknEX4SDyLQUNa-13" value="Yes&lt;br&gt;Mark pass" style="text;html=1;align=center;verticalAlign=middle;resizable=0;points=[];autosize=1;" parent="5rugF0ERXmjo2UGkI-uo-1" vertex="1">
          <mxGeometry x="651" y="289" width="70" height="30" as="geometry" />
        </mxCell>
        <mxCell id="RCvWjOJknEX4SDyLQUNa-14" value="" style="endArrow=classic;html=1;exitX=0.5;exitY=1;exitDx=0;exitDy=0;entryX=0.5;entryY=1;entryDx=0;entryDy=0;" parent="5rugF0ERXmjo2UGkI-uo-1" source="RCvWjOJknEX4SDyLQUNa-9" target="RCvWjOJknEX4SDyLQUNa-2" edge="1">
          <mxGeometry width="50" height="50" relative="1" as="geometry">
            <mxPoint x="545" y="430" as="sourcePoint" />
            <mxPoint x="595" y="380" as="targetPoint" />
            <Array as="points">
              <mxPoint x="585" y="410" />
              <mxPoint x="110" y="410" />
            </Array>
          </mxGeometry>
        </mxCell>
        <mxCell id="RCvWjOJknEX4SDyLQUNa-15" value="No&lt;br&gt;reject&lt;br&gt;openissue" style="text;html=1;align=center;verticalAlign=middle;resizable=0;points=[];autosize=1;" parent="5rugF0ERXmjo2UGkI-uo-1" vertex="1">
          <mxGeometry x="276" y="375" width="70" height="50" as="geometry" />
        </mxCell>
        <mxCell id="RCvWjOJknEX4SDyLQUNa-18" value="git feature1" style="shape=cylinder;whiteSpace=wrap;html=1;boundedLbl=1;backgroundOutline=1;" parent="5rugF0ERXmjo2UGkI-uo-1" vertex="1">
          <mxGeometry x="65" y="160" width="60" height="80" as="geometry" />
        </mxCell>
        <mxCell id="RCvWjOJknEX4SDyLQUNa-19" value="git master v0.1" style="shape=cylinder;whiteSpace=wrap;html=1;boundedLbl=1;backgroundOutline=1;" parent="5rugF0ERXmjo2UGkI-uo-1" vertex="1">
          <mxGeometry x="65" y="40" width="60" height="80" as="geometry" />
        </mxCell>
        <mxCell id="RCvWjOJknEX4SDyLQUNa-20" value="" style="endArrow=classic;html=1;exitX=0.5;exitY=1;exitDx=0;exitDy=0;" parent="5rugF0ERXmjo2UGkI-uo-1" source="RCvWjOJknEX4SDyLQUNa-19" target="RCvWjOJknEX4SDyLQUNa-18" edge="1">
          <mxGeometry width="50" height="50" relative="1" as="geometry">
            <mxPoint x="460" y="300" as="sourcePoint" />
            <mxPoint x="510" y="250" as="targetPoint" />
            <Array as="points" />
          </mxGeometry>
        </mxCell>
        <mxCell id="RCvWjOJknEX4SDyLQUNa-23" value="" style="endArrow=classic;html=1;exitX=0.5;exitY=1;exitDx=0;exitDy=0;" parent="5rugF0ERXmjo2UGkI-uo-1" source="RCvWjOJknEX4SDyLQUNa-18" edge="1">
          <mxGeometry width="50" height="50" relative="1" as="geometry">
            <mxPoint x="105" y="250" as="sourcePoint" />
            <mxPoint x="95" y="290" as="targetPoint" />
            <Array as="points">
              <mxPoint x="95" y="260" />
            </Array>
          </mxGeometry>
        </mxCell>
        <mxCell id="RCvWjOJknEX4SDyLQUNa-29" value="git master v0.2" style="shape=cylinder;whiteSpace=wrap;html=1;boundedLbl=1;backgroundOutline=1;" parent="5rugF0ERXmjo2UGkI-uo-1" vertex="1">
          <mxGeometry x="725" y="505" width="60" height="80" as="geometry" />
        </mxCell>
        <mxCell id="RCvWjOJknEX4SDyLQUNa-30" value="" style="endArrow=classic;html=1;exitX=1;exitY=0.5;exitDx=0;exitDy=0;" parent="5rugF0ERXmjo2UGkI-uo-1" edge="1">
          <mxGeometry width="50" height="50" relative="1" as="geometry">
            <mxPoint x="155" y="555" as="sourcePoint" />
            <mxPoint x="245" y="555" as="targetPoint" />
            <Array as="points">
              <mxPoint x="155" y="555" />
            </Array>
          </mxGeometry>
        </mxCell>
        <mxCell id="RCvWjOJknEX4SDyLQUNa-31" value="pull PR code&lt;br&gt;runBuildJob" style="text;html=1;align=center;verticalAlign=middle;resizable=0;points=[];autosize=1;" parent="5rugF0ERXmjo2UGkI-uo-1" vertex="1">
          <mxGeometry x="155" y="525" width="80" height="30" as="geometry" />
        </mxCell>
        <mxCell id="RCvWjOJknEX4SDyLQUNa-32" value="Build&lt;br&gt;Server" style="shape=cylinder;whiteSpace=wrap;html=1;boundedLbl=1;backgroundOutline=1;" parent="5rugF0ERXmjo2UGkI-uo-1" vertex="1">
          <mxGeometry x="245" y="505" width="60" height="80" as="geometry" />
        </mxCell>
        <mxCell id="RCvWjOJknEX4SDyLQUNa-33" value="runDeployJob" style="text;html=1;align=center;verticalAlign=middle;resizable=0;points=[];autosize=1;" parent="5rugF0ERXmjo2UGkI-uo-1" vertex="1">
          <mxGeometry x="305" y="530" width="90" height="20" as="geometry" />
        </mxCell>
        <mxCell id="RCvWjOJknEX4SDyLQUNa-34" value="" style="endArrow=classic;html=1;exitX=1;exitY=0.5;exitDx=0;exitDy=0;" parent="5rugF0ERXmjo2UGkI-uo-1" edge="1">
          <mxGeometry width="50" height="50" relative="1" as="geometry">
            <mxPoint x="365" y="555" as="sourcePoint" />
            <mxPoint x="395" y="555" as="targetPoint" />
            <Array as="points">
              <mxPoint x="365" y="555" />
              <mxPoint x="305" y="555" />
            </Array>
          </mxGeometry>
        </mxCell>
        <mxCell id="RCvWjOJknEX4SDyLQUNa-35" value="PlayGround" style="shape=cylinder;whiteSpace=wrap;html=1;boundedLbl=1;backgroundOutline=1;" parent="5rugF0ERXmjo2UGkI-uo-1" vertex="1">
          <mxGeometry x="399" y="505" width="60" height="80" as="geometry" />
        </mxCell>
        <mxCell id="RCvWjOJknEX4SDyLQUNa-36" value="pass integration&lt;br&gt;test?" style="rhombus;whiteSpace=wrap;html=1;" parent="5rugF0ERXmjo2UGkI-uo-1" vertex="1">
          <mxGeometry x="545" y="515" width="80" height="80" as="geometry" />
        </mxCell>
        <mxCell id="RCvWjOJknEX4SDyLQUNa-37" value="" style="endArrow=classic;html=1;exitX=1;exitY=0.5;exitDx=0;exitDy=0;" parent="5rugF0ERXmjo2UGkI-uo-1" edge="1">
          <mxGeometry width="50" height="50" relative="1" as="geometry">
            <mxPoint x="519" y="554" as="sourcePoint" />
            <mxPoint x="549" y="554" as="targetPoint" />
            <Array as="points">
              <mxPoint x="519" y="554" />
              <mxPoint x="459" y="554" />
            </Array>
          </mxGeometry>
        </mxCell>
        <mxCell id="RCvWjOJknEX4SDyLQUNa-38" value="run integration &lt;br&gt;test" style="text;html=1;" parent="5rugF0ERXmjo2UGkI-uo-1" vertex="1">
          <mxGeometry x="465" y="520" width="80" height="40" as="geometry" />
        </mxCell>
        <mxCell id="RCvWjOJknEX4SDyLQUNa-39" value="" style="endArrow=classic;html=1;entryX=-0.083;entryY=0.6;entryDx=0;entryDy=0;exitX=1;exitY=0.5;exitDx=0;exitDy=0;entryPerimeter=0;" parent="5rugF0ERXmjo2UGkI-uo-1" source="RCvWjOJknEX4SDyLQUNa-36" target="RCvWjOJknEX4SDyLQUNa-29" edge="1">
          <mxGeometry width="50" height="50" relative="1" as="geometry">
            <mxPoint x="625" y="560" as="sourcePoint" />
            <mxPoint x="675" y="510" as="targetPoint" />
          </mxGeometry>
        </mxCell>
        <mxCell id="RCvWjOJknEX4SDyLQUNa-40" value="Yes&lt;br&gt;Mark pass" style="text;html=1;align=center;verticalAlign=middle;resizable=0;points=[];autosize=1;" parent="5rugF0ERXmjo2UGkI-uo-1" vertex="1">
          <mxGeometry x="651" y="534" width="70" height="30" as="geometry" />
        </mxCell>
        <mxCell id="RCvWjOJknEX4SDyLQUNa-41" value="" style="endArrow=classic;html=1;exitX=0.367;exitY=1.025;exitDx=0;exitDy=0;exitPerimeter=0;entryX=0.5;entryY=0;entryDx=0;entryDy=0;" parent="5rugF0ERXmjo2UGkI-uo-1" source="RCvWjOJknEX4SDyLQUNa-1" target="RCvWjOJknEX4SDyLQUNa-42" edge="1">
          <mxGeometry width="50" height="50" relative="1" as="geometry">
            <mxPoint x="460" y="550" as="sourcePoint" />
            <mxPoint x="510" y="500" as="targetPoint" />
            <Array as="points">
              <mxPoint x="747" y="470" />
              <mxPoint x="110" y="470" />
            </Array>
          </mxGeometry>
        </mxCell>
        <mxCell id="RCvWjOJknEX4SDyLQUNa-42" value="Merge to master" style="rounded=1;whiteSpace=wrap;html=1;" parent="5rugF0ERXmjo2UGkI-uo-1" vertex="1">
          <mxGeometry x="65" y="535" width="90" height="40" as="geometry" />
        </mxCell>
      </root>
    </mxGraphModel>
  </diagram>
</mxfile>
